<?xml version="1.0" standalone="no"?>
<!DOCTYPE svg PUBLIC "-//W3C//DTD SVG 20010904//EN"
 "http://www.w3.org/TR/2001/REC-SVG-20010904/DTD/svg10.dtd">
<svg version="1.0" xmlns="http://www.w3.org/2000/svg"
 width="512.000000pt" height="512.000000pt" viewBox="0 0 512.000000 512.000000"
 preserveAspectRatio="xMidYMid meet">
<metadata>
Created by potrace 1.16, written by Peter Selinger 2001-2019
</metadata>
<g transform="translate(0.000000,512.000000) scale(0.100000,-0.100000)"
fill="#000000" stroke="none">
<path d="M725 5091 c-74 -34 -136 -102 -165 -177 -20 -54 -20 -67 -20 -2354 0
-2287 0 -2300 20 -2354 29 -75 91 -143 165 -177 l60 -29 1775 0 1775 0 60 29
c74 34 136 102 165 177 19 52 20 76 20 564 0 497 -1 511 -20 530 -28 28 -90
27 -116 -1 -18 -20 -19 -47 -24 -529 -5 -496 -6 -509 -26 -537 -33 -44 -80
-71 -137 -78 -29 -3 -812 -5 -1742 -3 -1550 3 -1692 4 -1720 20 -39 21 -71 56
-84 91 -15 40 -15 4554 0 4594 13 35 45 70 84 91 26 15 74 17 332 20 l303 3
20 26 c26 33 25 63 -1 97 l-20 26 -322 0 -322 0 -60 -29z"/>
<path d="M1630 5100 c-24 -24 -27 -77 -6 -106 14 -19 42 -19 1343 -24 1211 -5
1331 -6 1358 -22 39 -21 71 -56 84 -91 8 -20 11 -535 11 -1682 l0 -1654 23
-25 c32 -36 84 -39 117 -6 20 20 20 33 20 1695 0 1659 0 1675 -20 1729 -29 75
-91 143 -165 177 l-60 29 -1342 0 c-1330 0 -1343 0 -1363 -20z"/>
<path d="M1012 4697 c-21 -23 -22 -31 -22 -268 0 -244 0 -246 23 -267 29 -27
77 -28 108 -3 l24 19 0 252 0 252 -24 19 c-32 26 -82 25 -109 -4z"/>
<path d="M1299 4701 l-24 -19 0 -252 0 -252 24 -19 c32 -26 82 -25 109 4 20
21 22 34 22 122 l0 99 78 -112 c59 -87 84 -114 109 -123 40 -13 81 4 100 41
14 28 17 287 5 422 -8 85 -23 107 -75 108 -69 0 -93 -48 -82 -165 4 -41 5 -75
2 -75 -3 0 -38 47 -78 105 -39 58 -81 112 -92 120 -29 21 -70 19 -98 -4z"/>
<path d="M1813 4705 c-43 -30 -38 -58 46 -301 86 -244 97 -264 157 -264 61 0
76 26 153 260 39 118 71 229 71 247 0 60 -86 97 -129 54 -10 -10 -36 -71 -57
-135 l-38 -116 -41 114 c-22 63 -49 123 -59 135 -23 25 -72 28 -103 6z"/>
<path d="M2423 4703 c-61 -21 -136 -92 -163 -154 -49 -115 -20 -251 71 -333
147 -132 367 -87 460 94 18 36 23 61 22 120 0 91 -17 134 -80 201 -76 81 -202
111 -310 72z m188 -179 c16 -15 34 -45 41 -65 9 -31 8 -43 -8 -75 -22 -46 -75
-84 -116 -84 -37 0 -81 23 -107 56 -26 33 -28 109 -5 143 47 67 139 79 195 25z"/>
<path d="M2952 4697 c-21 -23 -22 -31 -22 -266 l0 -242 25 -24 c15 -16 36 -25
55 -25 19 0 40 9 55 25 l25 24 0 241 0 241 -25 24 c-32 33 -83 34 -113 2z"/>
<path d="M3397 4706 c-94 -35 -164 -110 -188 -201 -26 -96 13 -231 84 -291 64
-54 106 -69 197 -69 92 0 122 11 178 63 43 40 45 100 6 131 -36 28 -61 26
-113 -9 -24 -17 -56 -30 -70 -30 -63 0 -131 68 -131 130 0 90 113 159 190 115
42 -24 95 -19 119 11 39 50 20 99 -52 136 -53 27 -166 34 -220 14z"/>
<path d="M3826 4699 l-26 -20 0 -249 0 -249 26 -20 c23 -18 41 -21 139 -21 98
0 116 3 139 21 35 27 36 86 3 117 -19 18 -35 22 -85 22 -59 0 -62 1 -62 25 0
24 3 25 55 25 67 0 105 29 105 80 0 51 -38 80 -105 80 -52 0 -55 1 -55 25 0
24 3 25 59 25 77 0 111 24 111 80 0 30 -6 43 -26 59 -23 18 -41 21 -139 21
-98 0 -116 -3 -139 -21z"/>
<path d="M3113 3830 c-47 -19 -57 -87 -18 -125 l24 -25 484 0 484 0 21 23 c30
32 29 81 -3 112 l-24 25 -473 -1 c-260 0 -483 -4 -495 -9z"/>
<path d="M3633 3500 c-45 -19 -58 -95 -23 -130 19 -19 33 -20 250 -20 217 0
231 1 250 20 26 26 26 80 1 111 -19 24 -21 24 -238 26 -120 1 -228 -2 -240 -7z"/>
<path d="M1212 3077 c-42 -13 -98 -75 -111 -124 -14 -48 -15 -1590 -1 -1647
11 -51 38 -86 86 -113 39 -22 43 -23 451 -23 400 0 414 1 433 20 31 31 27 93
-6 119 -26 20 -37 21 -414 21 -344 0 -389 2 -394 16 -3 9 -6 99 -6 200 l0 184
945 0 945 0 0 -200 0 -200 -426 0 -426 0 -30 -30 c-25 -26 -29 -36 -24 -63 3
-18 16 -40 27 -50 20 -16 74 -17 826 -17 787 0 805 0 843 20 22 11 52 39 67
62 l28 42 3 808 c2 557 -1 821 -8 849 -15 53 -70 113 -118 127 -53 16 -2641
15 -2690 -1z m1928 -352 l0 -205 -945 0 -945 0 0 193 c0 137 3 196 12 205 9 9
233 12 945 12 l933 0 0 -205z m718 193 c9 -9 12 -68 12 -205 l0 -193 -285 0
-285 0 0 205 0 205 273 0 c199 0 276 -3 285 -12z m-718 -793 l0 -235 -945 0
-945 0 0 235 0 235 945 0 945 0 0 -235z m730 0 l0 -235 -285 0 -285 0 0 235 0
235 285 0 285 0 0 -235z m0 -579 c0 -101 -3 -191 -6 -200 -5 -14 -40 -16 -285
-16 l-279 0 0 200 0 200 285 0 285 0 0 -184z"/>
<path d="M3099 776 c-54 -19 -80 -40 -134 -113 -36 -49 -59 -69 -82 -75 -44
-11 -76 -54 -69 -93 10 -48 42 -68 104 -63 62 5 90 24 151 99 75 94 82 100 94
96 7 -2 38 -38 69 -79 72 -96 120 -122 209 -116 69 5 95 21 157 99 74 93 82
101 94 97 7 -3 39 -39 70 -80 63 -84 116 -118 184 -118 100 0 117 137 19 156
-26 5 -42 18 -74 64 -53 75 -101 117 -152 130 -89 24 -166 -12 -243 -116 -67
-90 -81 -91 -134 -16 -87 124 -166 163 -263 128z"/>
</g>
</svg>
